<?xml version="1.0" encoding="UTF-8"?>
<!DOCTYPE svg PUBLIC "-//W3C//DTD SVG 1.1//EN" "http://www.w3.org/Graphics/SVG/1.1/DTD/svg11.dtd">
<!-- Creator: CorelDRAW 2019 (64-Bit) -->
<svg xmlns="http://www.w3.org/2000/svg" xml:space="preserve" width="7490px" height="5172px" version="1.1" style="shape-rendering:geometricPrecision; text-rendering:geometricPrecision; image-rendering:optimizeQuality; fill-rule:evenodd; clip-rule:evenodd"
viewBox="0 0 3196.59 2207.48"
 xmlns:xlink="http://www.w3.org/1999/xlink">
 <defs>
  <style type="text/css">
   <![CDATA[
    .fil1 {fill:none}
    .fil0 {fill:#E6E6E6;fill-opacity:0.149020}
   ]]>
  </style>
   <clipPath id="id0">
    <path d="M0 0l3196.59 0 0 2207.48 -3196.59 0 0 -2207.48z"/>
   </clipPath>
 </defs>
 <g id="Layer_x0020_1">
  <metadata id="CorelCorpID_0Corel-Layer"/>
  <g>
  </g>
  <g style="clip-path:url(#id0)">
   <g>
    <g id="_2272331024592">
     <path class="fil0" d="M-371.55 1415.67c607.58,2608.91 2672.49,-182.81 0,0z"/>
     <path class="fil0" d="M1276.04 1070.91c377.47,1212.14 -1136.23,566.34 0,0z"/>
     <path class="fil0" d="M-182.92 937.99c43.21,156.67 92.92,284.53 146.36,388.6 369.3,2.03 618.13,80.04 772.78,194.27 145.21,-259.77 -5.96,-682.45 -919.14,-582.87z"/>
     <path class="fil0" d="M-57.41 514.68c34.14,123.78 73.42,224.8 115.64,307.03 291.78,1.6 488.38,63.24 610.57,153.49 114.73,-205.24 -4.71,-539.19 -726.21,-460.52z"/>
     <path class="fil0" d="M1040.31 714.51c243.8,782.9 -733.86,365.79 0,0z"/>
     <path class="fil0" d="M759.79 819.67c212.29,-378.46 -127.46,-616.48 -400.2,-536.96 101.98,290.6 405.34,181.91 400.2,536.96z"/>
    </g>
   </g>
  </g>
  <polygon class="fil1" points="0,0 3196.59,0 3196.59,2207.48 0,2207.48 "/>
 </g>
</svg>
