<?xml version="1.0" encoding="UTF-8" standalone="no"?>
<!-- Creator: CorelDRAW 2019 (64-Bit) -->

<svg
   xml:space="preserve"
   width="7490px"
   height="5172px"
   version="1.1"
   style="shape-rendering:geometricPrecision; text-rendering:geometricPrecision; image-rendering:optimizeQuality; fill-rule:evenodd; clip-rule:evenodd"
   viewBox="0 0 3196.59 2207.48"
   id="svg18"
   sodipodi:docname="motif-gabungan.svg"
   inkscape:version="1.3 (0e150ed6c4, 2023-07-21)"
   xmlns:inkscape="http://www.inkscape.org/namespaces/inkscape"
   xmlns:sodipodi="http://sodipodi.sourceforge.net/DTD/sodipodi-0.dtd"
   xmlns:xlink="http://www.w3.org/1999/xlink"
   xmlns="http://www.w3.org/2000/svg"
   xmlns:svg="http://www.w3.org/2000/svg"><sodipodi:namedview
   id="namedview18"
   pagecolor="#ffffff"
   bordercolor="#000000"
   borderopacity="0.25"
   inkscape:showpageshadow="2"
   inkscape:pageopacity="0.0"
   inkscape:pagecheckerboard="0"
   inkscape:deskcolor="#d1d1d1"
   inkscape:zoom="0.075567423"
   inkscape:cx="2348.8958"
   inkscape:cy="2454.7615"
   inkscape:window-width="1920"
   inkscape:window-height="1009"
   inkscape:window-x="-8"
   inkscape:window-y="-8"
   inkscape:window-maximized="1"
   inkscape:current-layer="Layer_x0020_1" />&#10; <defs
   id="defs14"><linearGradient
   id="linearGradient23"
   gradientUnits="userSpaceOnUse"
   x1="-146.92"
   y1="2385.28"
   x2="1423.63"
   y2="810.46">&#10;   <stop
   offset="0"
   style="stop-color:#01425d;stop-opacity:1;"
   id="stop22" />&#10;   <stop
   offset="1"
   style="stop-color:#01425d;stop-opacity:1;"
   id="stop23" />&#10;  </linearGradient><linearGradient
   id="linearGradient21"
   gradientUnits="userSpaceOnUse"
   x1="-146.92"
   y1="2385.28"
   x2="1423.63"
   y2="810.46">&#10;   <stop
   offset="0"
   style="stop-color:#01425d;stop-opacity:1;"
   id="stop20" />&#10;   <stop
   offset="1"
   style="stop-color:#01425d;stop-opacity:1;"
   id="stop21" />&#10;  </linearGradient><linearGradient
   id="linearGradient19"
   gradientUnits="userSpaceOnUse"
   x1="-146.92"
   y1="2385.28"
   x2="1423.63"
   y2="810.46">&#10;   <stop
   offset="0"
   style="stop-color:#01425d;stop-opacity:1;"
   id="stop18" />&#10;   <stop
   offset="1"
   style="stop-color:#01425d;stop-opacity:1;"
   id="stop19" />&#10;  </linearGradient>&#10;  <style
   type="text/css"
   id="style1">&#10;   <![CDATA[
    .fil4 {fill:none}
    .fil0 {fill:url(#id9)}
    .fil3 {fill:url(#id10)}
    .fil1 {fill:url(#id11)}
    .fil2 {fill:url(#id12)}
   ]]>&#10;  </style>&#10;   <clipPath
   id="id0">&#10;    <path
   d="M0 0l3196.59 0 0 2207.48 -3196.59 0 0 -2207.48z"
   id="path1" />&#10;   </clipPath>&#10;      <mask
   id="id1">&#10;  <linearGradient
   id="id2"
   gradientUnits="userSpaceOnUse"
   x1="-381.65"
   y1="2295.65"
   x2="2503.39"
   y2="285.51">&#10;   <stop
   offset="0"
   style="stop-opacity:1; stop-color:white"
   id="stop1" />&#10;   <stop
   offset="0.619608"
   style="stop-opacity:-127.502; stop-color:white"
   id="stop2" />&#10;   <stop
   offset="1"
   style="stop-opacity:0; stop-color:white"
   id="stop3" />&#10;  </linearGradient>&#10;       <rect
   style="fill:url(#id2)"
   x="569.54"
   y="1580.13"
   width="597.28"
   height="597.29"
   id="rect3" />&#10;      </mask>&#10;      <mask
   id="id3">&#10;  <linearGradient
   id="id4"
   gradientUnits="userSpaceOnUse"
   x1="-381.65"
   y1="2295.65"
   x2="2503.39"
   y2="285.51">&#10;   <stop
   offset="0"
   style="stop-opacity:1; stop-color:white"
   id="stop4" />&#10;   <stop
   offset="0.619608"
   style="stop-opacity:-127.502; stop-color:white"
   id="stop5" />&#10;   <stop
   offset="1"
   style="stop-opacity:0; stop-color:white"
   id="stop6" />&#10;  </linearGradient>&#10;       <rect
   style="fill:url(#id4)"
   x="-46.22"
   y="1161"
   width="597.28"
   height="597.28"
   id="rect6" />&#10;      </mask>&#10;      <mask
   id="id5">&#10;  <linearGradient
   id="id6"
   gradientUnits="userSpaceOnUse"
   x1="-381.65"
   y1="2295.65"
   x2="2503.39"
   y2="285.51">&#10;   <stop
   offset="0"
   style="stop-opacity:1; stop-color:white"
   id="stop7" />&#10;   <stop
   offset="0.619608"
   style="stop-opacity:-127.502; stop-color:white"
   id="stop8" />&#10;   <stop
   offset="1"
   style="stop-opacity:0; stop-color:white"
   id="stop9" />&#10;  </linearGradient>&#10;       <rect
   style="fill:url(#id6)"
   x="-46.22"
   y="1769.12"
   width="597.28"
   height="597.28"
   id="rect9" />&#10;      </mask>&#10;      <mask
   id="id7">&#10;  <linearGradient
   id="id8"
   gradientUnits="userSpaceOnUse"
   x1="-381.65"
   y1="2295.65"
   x2="2503.39"
   y2="285.51">&#10;   <stop
   offset="0"
   style="stop-opacity:1; stop-color:white"
   id="stop10" />&#10;   <stop
   offset="0.619608"
   style="stop-opacity:-127.502; stop-color:white"
   id="stop11" />&#10;   <stop
   offset="1"
   style="stop-opacity:0; stop-color:white"
   id="stop12" />&#10;  </linearGradient>&#10;       <rect
   style="fill:url(#id8)"
   x="569.54"
   y="968.36"
   width="597.28"
   height="597.29"
   id="rect12" />&#10;      </mask>&#10;  <linearGradient
   id="id9"
   gradientUnits="userSpaceOnUse"
   x1="-146.92"
   y1="2385.28"
   x2="1423.63"
   y2="810.46">&#10;   <stop
   offset="0"
   style="stop-color:#01425d;stop-opacity:1;"
   id="stop13" />&#10;   <stop
   offset="1"
   style="stop-color:#01425d;stop-opacity:1;"
   id="stop14" />&#10;  </linearGradient>&#10;  <linearGradient
   id="id10"
   gradientUnits="userSpaceOnUse"
   xlink:href="#linearGradient23"
   x1="-146.92"
   y1="2385.28"
   x2="1423.63"
   y2="810.46">&#10;  </linearGradient>&#10;  <linearGradient
   id="id11"
   gradientUnits="userSpaceOnUse"
   xlink:href="#linearGradient19"
   x1="-146.92"
   y1="2385.28"
   x2="1423.63"
   y2="810.46">&#10;  </linearGradient>&#10;  <linearGradient
   id="id12"
   gradientUnits="userSpaceOnUse"
   xlink:href="#linearGradient21"
   x1="-146.92"
   y1="2385.28"
   x2="1423.63"
   y2="810.46">&#10;  </linearGradient>&#10; </defs>&#10; <g
   id="Layer_x0020_1"
   inkscape:label="Layer 1">&#10;  <metadata
   id="CorelCorpID_0Corel-Layer" />&#10;  <g
   id="g14">&#10;  </g>&#10;  <g
   style="clip-path:url(#id0)"
   clip-path="url(#id0)"
   id="g18">&#10;   <g
   id="g17">&#10;    <g
   id="_2272248612160">&#10;     <path
   class="fil0"
   style="mask:url(#id1)"
   d="M868.18 2177.42l298.64 0 0 -298.64c0,-164.26 -134.39,-298.65 -298.64,-298.65l-298.64 0 0 298.65c0,164.25 134.39,298.64 298.64,298.64zm-27.06 -382.25l54.12 0c31.1,0 56.54,25.44 56.54,56.54l0 54.13c0,31.1 -25.44,56.54 -56.54,56.54l-54.12 0c-31.1,0 -56.55,-25.44 -56.55,-56.54l0 -54.13c0,-31.1 25.45,-56.54 56.55,-56.54zm11.9 36.77l30.32 0c17.42,0 31.67,14.25 31.67,31.68l0 30.31c0,17.43 -14.25,31.68 -31.67,31.68l-30.32 0c-17.42,0 -31.68,-14.25 -31.68,-31.68l0 -30.31c0,-17.43 14.26,-31.68 31.68,-31.68zm15.16 -164.03l0 0c16.01,0 29.12,13.11 29.12,29.12l0 44.11c0,16.02 -13.11,29.12 -29.12,29.12l0 0c-16.02,0 -29.12,-13.1 -29.12,-29.12l0 -44.11c0,-16.01 13.1,-29.12 29.12,-29.12zm0 319.38l0 0c16.01,0 29.12,13.1 29.12,29.12l0 44.11c0,16.01 -13.11,29.12 -29.12,29.12l0 0c-16.02,0 -29.12,-13.11 -29.12,-29.12l0 -44.11c0,-16.02 13.1,-29.12 29.12,-29.12zm210.86 -108.52l0 0c0,16.02 -13.1,29.13 -29.12,29.13l-44.11 0c-16.01,0 -29.12,-13.11 -29.12,-29.13l0 0c0,-16.01 13.11,-29.12 29.12,-29.12l44.11 0c16.02,0 29.12,13.11 29.12,29.12zm-319.38 0l0 0c0,16.02 -13.1,29.13 -29.12,29.13l-44.1 0c-16.02,0 -29.12,-13.11 -29.12,-29.13l0 0c0,-16.01 13.1,-29.12 29.12,-29.12l44.1 0c16.02,0 29.12,13.11 29.12,29.12zm241.44 -167.77c18.42,0 33.35,14.93 33.35,33.35 0,18.42 -14.93,33.35 -33.35,33.35 -18.42,0 -33.35,-14.93 -33.35,-33.35 0,-18.42 14.93,-33.35 33.35,-33.35zm32.88 294.96c0,18.42 -14.93,33.35 -33.35,33.35 -18.42,0 -33.35,-14.93 -33.35,-33.35 0,-18.41 14.93,-33.34 33.35,-33.34 18.42,0 33.35,14.93 33.35,33.34zm-294.96 -33.81c18.41,0 33.34,14.93 33.34,33.35 0,18.41 -14.93,33.34 -33.34,33.34 -18.42,0 -33.35,-14.93 -33.35,-33.34 0,-18.42 14.93,-33.35 33.35,-33.35zm33.81 -228.27c0,18.42 -14.93,33.35 -33.35,33.35 -18.41,0 -33.34,-14.93 -33.34,-33.35 0,-18.42 14.93,-33.35 33.34,-33.35 18.42,0 33.35,14.93 33.35,33.35z"
   mask="url(#id1)"
   id="path14" />&#10;     <path
   class="fil1"
   style="mask:url(#id3)"
   d="M252.42 1161l-298.64 0 0 298.64c0,164.25 134.39,298.64 298.64,298.64l298.64 0 0 -298.64c0,-164.26 -134.39,-298.64 -298.64,-298.64zm0 412.16c73.06,-175.13 -73.06,-175.13 0,0zm-12.99 -143.51c0,0 -13.28,13.9 -48.04,-57.52 -34.77,-71.42 14.54,-123.89 14.54,-123.89 0,0 -1.27,63.21 27.81,99.87 29.07,36.66 5.69,81.54 5.69,81.54zm12.99 276.47c138.29,-165.74 -138.29,-165.74 0,0zm0.8 -492.97c-120.2,141.23 120.2,141.23 0,0zm148.38 304.59c-80.66,111.38 -228.75,-124.72 34.13,-145.87 -10.28,127.7 -63.64,156.79 -103.11,144.3 19.9,12.07 45.24,14.95 68.98,1.57zm-298.36 0c80.65,111.38 228.75,-124.72 -34.13,-145.87 10.27,127.71 63.64,156.79 103.11,144.29 -19.91,12.08 -45.25,14.96 -68.98,1.58zm163.77 -88.09c0,0 13.27,13.9 48.04,-57.52 34.76,-71.42 -14.54,-123.89 -14.54,-123.89 0,0 1.26,63.21 -27.81,99.87 -29.08,36.66 -5.69,81.54 -5.69,81.54zm-79.91 127.16c12.34,0 22.35,10.01 22.35,22.36 0,12.35 -10.01,22.36 -22.35,22.36 -12.35,0 -22.36,-10.01 -22.36,-22.36 0,-12.35 10.01,-22.36 22.36,-22.36zm130.64 0c12.35,0 22.36,10.01 22.36,22.36 0,12.35 -10.01,22.36 -22.36,22.36 -12.35,0 -22.36,-10.01 -22.36,-22.36 0,-12.35 10.01,-22.36 22.36,-22.36z"
   mask="url(#id3)"
   id="path15" />&#10;     <path
   class="fil2"
   style="mask:url(#id5)"
   d="M252.42 2366.4l-298.64 0 0 -298.64c0,-164.25 134.39,-298.64 298.64,-298.64l298.64 0 0 298.64c0,164.25 -134.39,298.64 -298.64,298.64zm-213.13 -215.64l19.66 19.66 18.8 -18.81 20.09 20.09 20.94 -20.94 19.67 19.66 20.2 -20.21 15.49 15.5 -19.12 19.13 19.87 19.87 -16.88 16.88 19.01 19.01 -21.58 21.58 26.2 26.2 71.16 -71.16 71.16 71.16 26.2 -26.2 -21.58 -21.58 19.01 -19.01 -16.88 -16.88 19.87 -19.87 -19.12 -19.13 15.5 -15.5 20.2 20.21 19.66 -19.66 20.94 20.94 20.09 -20.09 18.81 18.81 18.89 -18.89 0 -7.23 -75.23 -75.22 75.23 -75.22 0 -8.59 -18.89 -18.89 -20.09 20.09 -18.81 -18.81 -19.66 19.66 -20.94 -20.94 -19.57 19.56 -16.13 -16.13 19.12 -19.12 -19.87 -19.88 16.88 -16.88 -19.01 -19.01 21.58 -21.58 -26.2 -26.2 -71.16 71.17 -71.16 -71.17 -26.2 26.2 21.58 21.58 -19.01 19.01 16.88 16.88 -19.87 19.88 19.12 19.12 -16.13 16.13 -19.56 -19.56 -20.95 20.94 -19.66 -19.66 -18.8 18.81 -20.09 -20.09 -19.66 19.66 0 8.59 0.77 -0.77 75.22 75.22 -75.22 75.22 -0.77 -0.77 0 7.23zm213.51 14.28l-23.46 19.53 -38.2 -38.2 18.07 -17.34 16.2 16.2 0 0 9 9.01 6.25 -6.25 8.35 -8.35 3.79 -3.79 3.79 3.79 8.35 8.35 6.25 6.25 9.01 -9.01 0 0 16.19 -16.2 18.07 17.34 -38.19 38.2 -23.47 -19.53zm0 -161.43l-3.79 -3.79 -8.35 -8.35 -6.25 -6.25 -9 9.01 0 0 -14.6 14.59 -14.59 -14.59c12.73,-12.73 25.46,-25.47 38.19,-38.2l14.6 14.6 3.79 3.79 3.79 -3.79 14.6 -14.6c12.73,12.73 25.46,25.47 38.2,38.2l-14.6 14.59 -14.59 -14.59 0 0 -9.01 -9.01 -6.25 6.25 -8.35 8.35 -3.79 3.79zm-32.53 43.75l14.6 14.6 14.59 -14.6 -14.59 -14.59 -14.6 14.59zm0 38.93l14.6 14.59 14.59 -14.59 -14.59 -14.6 -14.6 14.6zm-58.54 22.45l14.6 14.59 14.59 -14.59 -14.59 -14.6 0 0 -9.01 -9.01 6.25 -6.25 8.34 -8.34 6.25 -6.25 -14.59 -14.6 5.76 -5.75 0 0 14.6 -14.6 -4.16 -4.16 -10.44 -10.43 -4.16 -4.16 -8.22 8.22 -6.37 6.37 -8.22 8.22 -14.6 14.6 4.16 4.15 10.44 10.44 4.16 4.16 -3.8 3.79 -14.59 14.6 9.01 9 14.59 14.6zm123.6 -61.38l-14.59 14.6 -14.6 -14.6 14.6 -14.59 14.59 14.59zm0 38.93l-14.59 14.59 -14.6 -14.59 14.6 -14.6 14.59 14.6zm58.54 22.45l-14.59 14.59 -14.6 -14.59 14.6 -14.6 0 0 9 -9.01 -6.25 -6.25 -8.34 -8.34 -6.25 -6.25 14.59 -14.6 -5.76 -5.75 0 0 -14.59 -14.6 4.16 -4.16 10.43 -10.43 4.16 -4.16 8.22 8.22 6.38 6.37 8.21 8.22 14.6 14.6 -4.16 4.15 -10.44 10.44 -4.15 4.16 3.79 3.79 14.59 14.6 -9 9 -14.6 14.6z"
   mask="url(#id5)"
   id="path16" />&#10;     <path
   class="fil3"
   style="mask:url(#id7)"
   d="M868.18 968.36l298.64 0c0,0 0,0 0,0.01l0 298.63c0,164.26 -134.39,298.65 -298.64,298.65l-298.64 0c0,0 0,0 0,-0.01l0 -298.64c0,-164.25 134.39,-298.64 298.64,-298.64zm167.01 301.41c-118.7,509.7 -522.12,-35.71 0,0zm-324.23 -76.67c-73.74,236.82 221.98,110.65 0,0zm287.38 -16.65c-8.45,30.6 -18.16,55.59 -28.6,75.92 -72.15,0.39 -120.76,15.63 -150.98,37.95 -28.36,-50.75 1.17,-133.33 179.58,-113.87zm-24.53 -82.7c-6.67,24.18 -14.34,43.92 -22.59,59.98 -57,0.31 -95.41,12.35 -119.28,29.99 -22.42,-40.1 0.92,-105.34 141.87,-89.97zm-214.46 39.04c-47.63,152.95 143.38,71.46 0,0zm54.81 20.54c-41.48,-73.94 24.9,-120.44 78.19,-104.9 -19.93,56.77 -79.19,35.54 -78.19,104.9zm-143.49 147.66c-84.86,272.5 255.43,127.32 0,0z"
   mask="url(#id7)"
   id="path17" />&#10;    </g>&#10;   </g>&#10;  </g>&#10;  <polygon
   class="fil4"
   points="0,0 3196.59,0 3196.59,2207.48 0,2207.48 "
   id="polygon18" />&#10; </g>&#10;</svg>
