<?xml version="1.0" encoding="UTF-8"?>
<!DOCTYPE svg PUBLIC "-//W3C//DTD SVG 1.1//EN" "http://www.w3.org/Graphics/SVG/1.1/DTD/svg11.dtd">
<!-- Creator: CorelDRAW 2019 (64-Bit) -->
<svg xmlns="http://www.w3.org/2000/svg" xml:space="preserve" width="7490px" height="4405px" version="1.1" style="shape-rendering:geometricPrecision; text-rendering:geometricPrecision; image-rendering:optimizeQuality; fill-rule:evenodd; clip-rule:evenodd"
viewBox="0 0 3196.59 1880.18"
 xmlns:xlink="http://www.w3.org/1999/xlink">
 <defs>
  <style type="text/css">
   <![CDATA[
    .fil1 {fill:none}
    .fil0 {fill:#F2F3F3}
   ]]>
  </style>
   <clipPath id="id0">
    <path d="M0 0l3196.59 0 0 1880.18 -3196.59 0 0 -1880.18z"/>
   </clipPath>
 </defs>
 <g id="Layer_x0020_1">
  <metadata id="CorelCorpID_0Corel-Layer"/>
  <g>
  </g>
  <g style="clip-path:url(#id0)">
   <g>
    <g id="_2273590838944">
     <path class="fil0" d="M2366.35 1684.09c272.65,-653.55 -272.66,-653.55 0,0z"/>
     <path class="fil0" d="M2317.86 1148.53c0,0 -49.53,51.89 -179.27,-214.65 -129.73,-266.55 54.26,-462.32 54.26,-462.32 0,0 -4.71,235.88 103.79,372.69 108.5,136.81 21.22,304.28 21.22,304.28z"/>
     <path class="fil0" d="M2366.35 2180.28c516.08,-618.52 -516.09,-618.52 0,0z"/>
     <path class="fil0" d="M2369.33 340.59c-448.56,527.03 448.57,527.03 0,0z"/>
     <path class="fil0" d="M2923.07 1477.28c-301,415.64 -853.67,-465.46 127.36,-544.36 -38.34,476.56 -237.5,585.1 -384.79,538.48 74.29,45.07 168.85,55.81 257.43,5.88z"/>
     <path class="fil0" d="M1809.63 1477.28c300.99,415.66 853.68,-465.46 -127.36,-544.36 38.33,476.57 237.49,585.1 384.8,538.47 -74.29,45.08 -168.87,55.82 -257.44,5.89z"/>
     <path class="fil0" d="M2420.8 1148.53c0,0 49.54,51.89 179.27,-214.65 129.74,-266.55 -54.25,-462.32 -54.25,-462.32 0,0 4.72,235.88 -103.79,372.69 -108.5,136.81 -21.23,304.28 -21.23,304.28z"/>
     <g>
      <circle class="fil0" cx="2122.57" cy="1706.52" r="83.43"/>
      <circle class="fil0" cx="2610.12" cy="1706.52" r="83.43"/>
     </g>
    </g>
   </g>
  </g>
  <polygon class="fil1" points="0,0 3196.59,0 3196.59,1880.18 0,1880.18 "/>
 </g>
</svg>
