<?xml version="1.0" encoding="UTF-8" standalone="no"?>
<!-- Created with Inkscape (http://www.inkscape.org/) -->

<svg
   width="1440mm"
   height="820mm"
   viewBox="0 0 1440 820"
   version="1.1"
   id="svg1"
   xml:space="preserve"
   sodipodi:docname="ambient.svg"
   inkscape:version="1.3 (0e150ed6c4, 2023-07-21)"
   xmlns:inkscape="http://www.inkscape.org/namespaces/inkscape"
   xmlns:sodipodi="http://sodipodi.sourceforge.net/DTD/sodipodi-0.dtd"
   xmlns="http://www.w3.org/2000/svg"
   xmlns:svg="http://www.w3.org/2000/svg"><sodipodi:namedview
     id="namedview1"
     pagecolor="#ffffff"
     bordercolor="#000000"
     borderopacity="0.25"
     inkscape:showpageshadow="2"
     inkscape:pageopacity="0.0"
     inkscape:pagecheckerboard="0"
     inkscape:deskcolor="#d1d1d1"
     inkscape:document-units="mm"
     inkscape:zoom="0.090532933"
     inkscape:cx="2534.9891"
     inkscape:cy="480.48814"
     inkscape:window-width="1920"
     inkscape:window-height="1009"
     inkscape:window-x="-8"
     inkscape:window-y="-8"
     inkscape:window-maximized="1"
     inkscape:current-layer="layer1" /><defs
     id="defs1"><inkscape:path-effect
       effect="bspline"
       id="path-effect2"
       is_visible="true"
       lpeversion="1.3"
       weight="33.333333"
       steps="2"
       helper_size="0"
       apply_no_weight="true"
       apply_with_weight="true"
       only_selected="false"
       uniform="false" /><inkscape:path-effect
       effect="bspline"
       id="path-effect1"
       is_visible="true"
       lpeversion="1.3"
       weight="33.333333"
       steps="2"
       helper_size="0"
       apply_no_weight="true"
       apply_with_weight="true"
       only_selected="false"
       uniform="false" /><inkscape:path-effect
       effect="bspline"
       id="path-effect2-3"
       is_visible="true"
       lpeversion="1.3"
       weight="33.333333"
       steps="2"
       helper_size="0"
       apply_no_weight="true"
       apply_with_weight="true"
       only_selected="false"
       uniform="false" /><filter
       inkscape:collect="always"
       style="color-interpolation-filters:sRGB"
       id="filter2"
       x="-0.36235268"
       y="-0.51587294"
       width="1.7247054"
       height="2.0317459"><feGaussianBlur
         inkscape:collect="always"
         stdDeviation="91.542235"
         id="feGaussianBlur2" /></filter><filter
       inkscape:collect="always"
       style="color-interpolation-filters:sRGB"
       id="filter3"
       x="-0.29750299"
       y="-0.42354796"
       width="1.595006"
       height="1.8470959"><feGaussianBlur
         inkscape:collect="always"
         stdDeviation="75.159067"
         id="feGaussianBlur3" /></filter></defs><g
     inkscape:label="Layer 1"
     inkscape:groupmode="layer"
     id="layer1"><path
       style="opacity:0.30687831;mix-blend-mode:normal;fill:#e42f46;fill-opacity:1;stroke-width:0.264583;filter:url(#filter3)"
       d="m 65.269369,494.87822 c 6.332106,-20.94465 6.332106,-55.52768 28.494912,-83.04817 22.162809,-27.5205 66.486639,-47.97764 105.210219,-52.60483 38.72358,-4.6272 71.84469,6.57553 109.59419,22.16245 37.7495,15.58691 80.12504,35.55699 117.38736,45.29867 37.26232,9.74169 69.40927,9.25461 103.01848,21.67553 33.6092,12.42091 68.67861,37.74882 84.75238,61.85976 16.07377,24.11094 13.15133,47.00346 1.46108,70.87087 -11.69024,23.86742 -32.14739,48.70825 -62.83415,69.16597 -30.68676,20.45773 -71.60106,36.5312 -107.8892,41.15844 -36.28815,4.62723 -67.94804,-2.19183 -100.58305,2.43564 -32.63502,4.62747 -66.24322,20.70096 -94.98146,37.26201 -28.73824,16.56106 -52.60493,33.60869 -78.9078,44.08105 -26.30287,10.47236 -55.0403,14.36896 -79.394743,-3.65358 C 66.243143,753.51949 46.273067,713.57934 34.095899,675.8299 21.918731,638.08046 17.535055,602.52398 18.752837,578.6567 c 1.217782,-23.86729 8.036826,-36.04415 17.778652,-45.78593 9.741825,-9.74177 22.405775,-17.0479 28.73788,-37.99255 z"
       id="path2"
       inkscape:path-effect="#path-effect2"
       inkscape:original-d="m 71.601475,508.51659 c 0,-34.58302 0,-69.16605 0,-103.74907 44.325615,-20.45796 88.649445,-40.91512 132.974175,-61.37267 33.12243,11.20317 66.24354,22.40589 99.3653,33.60885 42.37725,19.97086 84.75278,39.94095 127.12916,59.91143 32.14826,-0.4871 64.29521,-0.97417 96.4428,-1.46127 35.07081,25.32894 70.14022,50.65684 105.21034,75.98524 -2.92256,22.89347 -5.84501,45.78599 -8.76752,68.67898 -20.45798,24.84184 -40.91514,49.68266 -61.3727,74.524 -40.91596,16.0741 -81.83025,32.14759 -122.74539,48.22139 -31.66115,-6.81931 -63.32104,-13.63837 -94.98155,-20.45758 -33.60952,16.07413 -67.21772,32.14762 -100.82657,48.22142 -23.86764,17.0483 -47.73432,34.09593 -71.60148,51.14391 -28.73858,3.89675 -57.47601,7.79335 -86.214017,11.69003 C 66.243144,753.51949 46.273063,713.57934 26.302583,673.63837 21.918732,638.08046 17.535055,602.52398 13.151291,566.96678 19.970616,554.78941 26.789668,542.61255 33.608856,530.43542 46.273315,523.129 58.93727,515.82288 71.601475,508.51659 Z"
       transform="matrix(1.2578745,0,0,1.2578745,-356.94774,42.072032)" /><path
       style="opacity:0.2010582;mix-blend-mode:normal;fill:#019cc5;fill-opacity:1;stroke-width:0.264583;filter:url(#filter2)"
       d="m 65.269369,494.87822 c 6.332106,-20.94465 6.332106,-55.52768 28.494912,-83.04817 22.162809,-27.5205 66.486639,-47.97764 105.210219,-52.60483 38.72358,-4.6272 71.84469,6.57553 109.59419,22.16245 37.7495,15.58691 80.12504,35.55699 117.38736,45.29867 37.26232,9.74169 69.40927,9.25461 103.01848,21.67553 33.6092,12.42091 68.67861,37.74882 84.75238,61.85976 16.07377,24.11094 13.15133,47.00346 1.46108,70.87087 -11.69024,23.86742 -32.14739,48.70825 -62.83415,69.16597 -30.68676,20.45773 -71.60106,36.5312 -107.8892,41.15844 -36.28815,4.62723 -67.94804,-2.19183 -100.58305,2.43564 -32.63502,4.62747 -66.24322,20.70096 -94.98146,37.26201 -28.73824,16.56106 -52.60493,33.60869 -78.9078,44.08105 -26.30287,10.47236 -55.0403,14.36896 -79.394743,-3.65358 C 66.243143,753.51949 46.273067,713.57934 34.095899,675.8299 21.918731,638.08046 17.535055,602.52398 18.752837,578.6567 c 1.217782,-23.86729 8.036826,-36.04415 17.778652,-45.78593 9.741825,-9.74177 22.405775,-17.0479 28.73788,-37.99255 z"
       id="path2-7"
       inkscape:path-effect="#path-effect2-3"
       inkscape:original-d="m 71.601475,508.51659 c 0,-34.58302 0,-69.16605 0,-103.74907 44.325615,-20.45796 88.649445,-40.91512 132.974175,-61.37267 33.12243,11.20317 66.24354,22.40589 99.3653,33.60885 42.37725,19.97086 84.75278,39.94095 127.12916,59.91143 32.14826,-0.4871 64.29521,-0.97417 96.4428,-1.46127 35.07081,25.32894 70.14022,50.65684 105.21034,75.98524 -2.92256,22.89347 -5.84501,45.78599 -8.76752,68.67898 -20.45798,24.84184 -40.91514,49.68266 -61.3727,74.524 -40.91596,16.0741 -81.83025,32.14759 -122.74539,48.22139 -31.66115,-6.81931 -63.32104,-13.63837 -94.98155,-20.45758 -33.60952,16.07413 -67.21772,32.14762 -100.82657,48.22142 -23.86764,17.0483 -47.73432,34.09593 -71.60148,51.14391 -28.73858,3.89675 -57.47601,7.79335 -86.214017,11.69003 C 66.243144,753.51949 46.273063,713.57934 26.302583,673.63837 21.918732,638.08046 17.535055,602.52398 13.151291,566.96678 19.970616,554.78941 26.789668,542.61255 33.608856,530.43542 46.273315,523.129 58.93727,515.82288 71.601475,508.51659 Z"
       transform="matrix(-1.1160151,0.2850064,-0.2850064,-1.1160151,1782.0683,648.13707)" /></g></svg>
