<?xml version="1.0" encoding="UTF-8" standalone="no"?>
<!-- Created with Inkscape (http://www.inkscape.org/) -->

<svg
   width="208.01817mm"
   height="40.914669mm"
   viewBox="0 0 208.01817 40.914669"
   version="1.1"
   id="svg1"
   sodipodi:docname="logo sys pcr.svg"
   inkscape:version="1.3 (0e150ed6c4, 2023-07-21)"
   xml:space="preserve"
   xmlns:inkscape="http://www.inkscape.org/namespaces/inkscape"
   xmlns:sodipodi="http://sodipodi.sourceforge.net/DTD/sodipodi-0.dtd"
   xmlns="http://www.w3.org/2000/svg"
   xmlns:svg="http://www.w3.org/2000/svg"><sodipodi:namedview
     id="namedview1"
     pagecolor="#ffffff"
     bordercolor="#000000"
     borderopacity="0.25"
     inkscape:showpageshadow="2"
     inkscape:pageopacity="0.0"
     inkscape:pagecheckerboard="0"
     inkscape:deskcolor="#d1d1d1"
     inkscape:document-units="mm"
     inkscape:zoom="0.72426347"
     inkscape:cx="5656.7812"
     inkscape:cy="176.04091"
     inkscape:window-width="1920"
     inkscape:window-height="1009"
     inkscape:window-x="-8"
     inkscape:window-y="-7"
     inkscape:window-maximized="1"
     inkscape:current-layer="layer1" /><defs
     id="defs1" /><g
     inkscape:label="Layer 1"
     inkscape:groupmode="layer"
     id="layer1"
     transform="translate(-3.4951216,-14.691657)"><text
       xml:space="preserve"
       style="font-size:41.5137px;line-height:0.9;font-family:'Tw Cen MT';-inkscape-font-specification:'Tw Cen MT';letter-spacing:0.124541px;fill:#0079ff;fill-opacity:1;stroke:none;stroke-width:11.297;stroke-dasharray:none;stroke-opacity:0.717647"
       x="48.322948"
       y="50.322319"
       id="text16-2-05-2-3"
       inkscape:export-filename="..\..\..\..\edclass\edclass\public\theme\media\logos\default.svg"
       inkscape:export-xdpi="96"
       inkscape:export-ydpi="96"><tspan
         sodipodi:role="line"
         id="tspan16-2-1-1-5"
         style="font-style:normal;font-variant:normal;font-weight:normal;font-stretch:normal;font-size:41.5137px;font-family:Poppins;-inkscape-font-specification:Poppins;fill:#0079ff;fill-opacity:1;stroke-width:11.297"
         x="48.322948"
         y="50.322319"><tspan
           style="font-style:normal;font-variant:normal;font-weight:300;font-stretch:normal;font-family:Poppins;-inkscape-font-specification:'Poppins Light';fill:#999999;fill-opacity:1;stroke-width:11.297"
           id="tspan2-9-4">Ed</tspan><tspan
           style="font-style:normal;font-variant:normal;font-weight:500;font-stretch:normal;font-size:41.5137px;font-family:Poppins;-inkscape-font-specification:'Poppins Medium';fill:#666666;fill-opacity:1;stroke-width:11.297"
           id="tspan1-0-7">Class</tspan></tspan></text><path
       id="rect2-0-57-6-5"
       style="opacity:0.5;fill:#0079ff;fill-opacity:1;stroke-width:0.205664"
       d="m 26.198322,32.497996 c 3.1592,-0.79219 6.3184,-0.70608 9.4776,0 0.9054,0.20234 1.6867,0.65823 1.6867,1.47586 v 5.55208 c 0,0.81763 -0.8655,1.08583 -1.6867,1.47587 -3.1592,1.50041 -6.3184,1.6834 -9.4776,0 -0.7981,-0.42527 -1.6867,-0.65824 -1.6867,-1.47587 v -5.55208 c 0,-0.81763 0.7884,-1.25062 1.6867,-1.47586 z"
       sodipodi:nodetypes="sssssssss" /><path
       id="path8-9-3-3-8-0"
       style="color:#000000;opacity:0.69914;fill:#0079ff;fill-opacity:1;stroke-width:0.356295;-inkscape-stroke:none"
       d="m 28.724722,19.002916 a 4.2789871,4.2789871 0 0 0 -4.0838,-4.26496 v -0.033 c -0.2288,-0.008 -0.4582,-0.0133 -0.6888,-0.0133 -11.2475,0 -20.4570003,9.20952 -20.4570003,20.45706 0,11.24753 9.2095003,20.45761 20.4570003,20.45761 0.2306,0 0.46,-0.006 0.6888,-0.0132 v -0.0112 a 4.2789871,4.2789871 0 0 0 4.0838,-4.27417 4.2789871,4.2789871 0 0 0 -4.0838,-4.26496 v -0.0134 c -0.041,0.002 -0.082,0.003 -0.123,0.005 a 4.2789871,4.2789871 0 0 0 -0.072,-0.005 4.2789871,4.2789871 0 0 0 -0.2329,0.0168 c -0.087,0.003 -0.1728,0.01 -0.2606,0.01 -6.6262,0 -11.9059,-5.28029 -11.9059,-11.90651 0,-6.61282 5.2586,-11.88374 11.866,-11.90504 a 4.2789871,4.2789871 0 0 0 0.5334,0.0383 4.2789871,4.2789871 0 0 0 4.2791,-4.27914 z" /><rect
       style="opacity:0.5;fill:#0079ff;fill-opacity:1;stroke-width:0.209828"
       id="rect1-0-0-5-5"
       width="12.187838"
       height="12.187838"
       x="48.784039"
       y="14.384039"
       ry="1.7630204"
       transform="matrix(0.90145309,0.4328768,-0.90145309,0.4328768,0,0)" /><rect
       style="opacity:0.5;fill:#0079ff;fill-opacity:1;stroke-width:0.267499"
       id="rect3-4-6-9-0"
       width="1.6612562"
       height="6.6450248"
       x="39.267406"
       y="31.935793"
       ry="0.8306281" /></g></svg>
